# xmcd
#
# Track frame offsets: 
#        150
#        11450
#        21727
#        37097
#        48920
#        62735
#        75715
#        85580
#        97402
#        111337
#        121717
#        136937
#        148207
#        165940
#        179852
#        199672
#        214572
#        227420
#        240992
#        270427
#
# Disc length: 3799 seconds
#
# Revision: 1
# Processed by: cddbd v1.5.2PL0 Copyright (c) Steve Scherf et al.
# Submitted via: ExactAudioCopy v1.1
#
DISCID=110ed514
DTITLE=Billy Swan - Billy Swan (3rd) - Billy Swan Four
DYEAR=1997
DGENRE=Pop
TTITLE0=I Want To Taste Your Wine
TTITLE1=Ms. Misery
TTITLE2=I Got It For You
TTITLE3=Number one
TTITLE4=Vanessa
TTITLE5=Lucky
TTITLE6=You`re The One
TTITLE7=Love You Baby - To The Bone
TTITLE8=Your True Love
TTITLE9=Blue Suede Shoes
TTITLE10=Swept Away
TTITLE11=Playing The Game Of Love
TTITLE12=Pardon Me
TTITLE13=Oliver Swan
TTITLE14=Smoky Places
TTITLE15=Don`t Kill Our Love
TTITLE16=Not Everyone Knows
TTITLE17=Last Call
TTITLE18=California Song (For Marlu)
TTITLE19=Me And My Honey
EXTD=2LP on one cd
EXTT0=
EXTT1=
EXTT2=
EXTT3=
EXTT4=
EXTT5=
EXTT6=
EXTT7=
EXTT8=
EXTT9=
EXTT10=
EXTT11=
EXTT12=
EXTT13=
EXTT14=
EXTT15=
EXTT16=
EXTT17=
EXTT18=
EXTT19=
PLAYORDER=
